Coordinates
version=1
nRows=17
nColumns=34
inDegrees=yes

Units are S.I. units (second, meters, Newtons, ...)
If the header above contains a line with 'inDegrees', this indicates whether rotational values are in degrees (yes) or radians (no).

endheader
time	pelvis_tilt	pelvis_list	pelvis_rotation	pelvis_tx	pelvis_ty	pelvis_tz	hip_flexion_r	hip_adduction_r	hip_rotation_r	knee_angle_r	ankle_angle_r	subtalar_angle_r	mtp_angle_r	hip_flexion_l	hip_adduction_l	hip_rotation_l	knee_angle_l	ankle_angle_l	subtalar_angle_l	mtp_angle_l	lumbar_extension	lumbar_bending	lumbar_rotation	arm_flex_r	arm_add_r	arm_rot_r	elbow_flex_r	pro_sup_r	arm_flex_l	arm_add_l	arm_rot_l	elbow_flex_l	pro_sup_l
      6.50000000	     -3.72827925	     -2.48472118	      2.88154629	     -0.66467425	      1.14642359	     -0.04479731	     -0.42417269	     -2.82327171	    -11.61919521	      4.89229069	     11.53682897	     -9.45495264	      0.00000000	     -0.08576453	     -5.46441054	    -13.20955693	      2.10517557	      9.07071643	      1.03547460	      0.00000000	      7.27469644	      7.29307749	     -7.23452029	     -6.73780926	     -7.54634173	    -11.45776430	     32.57811029	    107.36533215	    150.86890968	    -32.83040042	     42.88452498	     41.02060271	     75.46147333
      6.51666670	     -3.81044237	     -2.48603899	      2.98377827	     -0.66186634	      1.14654823	     -0.04584633	     -0.28839695	     -2.86215526	    -11.75913158	      5.12062830	     11.63727963	     -9.54287240	      0.00000000	      0.18915186	     -5.50673289	    -12.91473068	      2.48687558	      9.36768599	      0.81503276	      0.00000000	      7.25808173	      7.34060562	     -7.60768586	     -7.05717566	     -7.57845471	    -11.58251239	     33.81220624	    107.60093734	    151.09595121	    -33.13013627	     42.68019500	     40.88259424	     75.47064445
      6.53333330	     -3.79447187	     -2.48546339	      2.85973384	     -0.66005871	      1.14667112	     -0.04617147	     -0.34991932	     -2.88690063	    -11.78794749	      5.17450681	     11.62005773	     -9.54670218	      0.00000000	      0.17303505	     -5.53187757	    -12.92185927	      2.66648044	      9.32483838	      0.80470501	      0.00000000	      7.26565887	      7.31022254	     -7.65462439	     -7.11660162	     -7.63428622	    -11.60089028	     33.83322818	    107.60896421	    151.06090483	    -33.13588592	     42.68947470	     40.88113114	     75.47200640
      6.55000000	     -3.74514061	     -2.54554384	      2.89701936	     -0.66097021	      1.14663373	     -0.04601596	     -0.41213957	     -2.85338248	    -11.87178914	      5.29240501	     11.62092843	     -9.47671227	      0.00000000	      0.37098298	     -5.66209563	    -12.75325079	      3.26711985	      9.66969418	      0.38251553	      0.00000000	      7.31906451	      7.44630036	     -7.74029045	     -7.51307586	     -7.71908321	    -11.68482774	     34.62062663	    107.80809621	    150.60433751	    -33.36128208	     42.72186431	     41.00064331	     75.47423590
      6.56666670	     -3.75078593	     -2.53575169	      2.77742897	     -0.66080952	      1.14655962	     -0.04579772	     -0.45110621	     -2.87785878	    -11.89527694	      5.30371802	     11.62167597	     -9.48375191	      0.00000000	      0.36899618	     -5.67214620	    -12.75051624	      3.42763429	      9.63503231	      0.37350347	      0.00000000	      7.31775885	      7.43015272	     -7.78284713	     -7.56579537	     -7.72270152	    -11.69131689	     34.62859021	    107.81539726	    150.59724208	    -33.37121496	     42.71129270	     41.01483347	     75.47237406
      6.58333330	     -3.80863947	     -2.57052854	      2.84699795	     -0.65908649	      1.14644451	     -0.04652072	     -0.40245840	     -2.87093568	    -11.97928729	      5.39584437	     11.62799744	     -9.38858074	      0.00000000	      0.67161612	     -5.75750102	    -12.51144112	      4.00900634	      9.95385470	     -0.11090720	      0.00000000	      7.37153448	      7.52181189	     -8.00761561	     -7.69839073	     -7.72563235	    -11.79605525	     35.05976978	    108.03044548	    150.49251019	    -33.65922533	     42.28161399	     41.64058633	     75.38959875
      6.60000000	     -3.81604188	     -2.55951791	      2.81129898	     -0.65769788	      1.14642933	     -0.04691060	     -0.44140827	     -2.91036969	    -11.99750868	      5.38562068	     11.63949133	     -9.39711468	      0.00000000	      0.63511032	     -5.74291379	    -12.50968034	      4.08118003	      9.93875239	     -0.11802369	      0.00000000	      7.42250036	      7.55608370	     -8.00288110	     -7.69446296	     -7.74648464	    -11.80425801	     35.05707549	    108.03583856	    150.50022824	    -33.65219728	     42.26979048	     41.66074539	     75.38705894
      6.61666670	     -3.76248358	     -2.57559873	      2.71144382	     -0.65874590	      1.14632375	     -0.04655276	     -0.52864969	     -2.92817787	    -12.09204025	      5.32287745	     11.87411677	     -9.00408864	      0.00000000	      0.55991908	     -5.74091972	    -12.26828156	      4.18259786	      9.87169265	     -0.71127726	      0.00000000	      7.51412584	      7.74290601	     -8.00407799	     -7.22448589	     -7.90875010	    -12.05013708	     34.08809429	    108.47672384	    149.73970414	    -34.08948443	     41.58451931	     42.45749787	     75.20745643
      6.63333330	     -3.80281948	     -2.56290856	      2.62529866	     -0.66206384	      1.14595003	     -0.04527785	     -0.45008340	     -2.95132253	    -12.09493517	      5.24750878	     11.90555113	     -9.00136954	      0.00000000	      0.58720524	     -5.72140304	    -12.22124727	      4.19138148	      9.95188329	     -0.72796303	      0.00000000	      7.44551296	      7.73601821	     -7.94448275	     -6.92366291	     -7.85999807	    -12.04113400	     34.14086061	    108.49898479	    149.59648575	    -34.08978765	     41.59338114	     42.41411029	     75.20286335
      6.65000000	     -3.78550249	     -2.57928714	      2.34576342	     -0.66552082	      1.14574076	     -0.04383397	     -0.27043258	     -2.94051121	    -11.78149777	      5.32951854	     12.12957397	     -8.84714097	      0.00000000	      0.53658781	     -5.73178845	    -12.17918211	      4.15227984	      9.98591761	     -1.01463397	      0.00000000	      7.43396140	      7.82697207	     -7.80235462	     -5.98536719	     -7.80417245	    -12.05416316	     32.63230399	    108.93756615	    149.04303133	    -34.12791267	     41.42068958	     41.88701391	     75.12661842
      6.66666670	     -3.81871292	     -2.58565975	      2.30060296	     -0.66679929	      1.14568719	     -0.04342541	     -0.12906453	     -2.90740584	    -11.80239580	      5.26731890	     12.13980190	     -8.85156182	      0.00000000	      0.60042865	     -5.74232904	    -12.12202542	      4.08304889	     10.04761773	     -1.01556015	      0.00000000	      7.29086940	      7.79031754	     -7.74934238	     -5.65491244	     -7.70873223	    -12.02544151	     32.68793415	    108.96266046	    148.89030044	    -34.12002921	     41.45126607	     41.83336093	     75.12630478
      6.68333330	     -3.79683866	     -2.60052433	      2.17675801	     -0.66541881	      1.14588867	     -0.04386619	     -0.02341282	     -2.87828668	    -11.74564822	      5.31349828	     12.14592685	     -8.81291284	      0.00000000	      0.60693891	     -5.77603008	    -12.04490266	      4.08909339	     10.09213107	     -1.02037282	      0.00000000	      7.21042981	      7.78056944	     -7.72081195	     -5.40061576	     -7.63383540	    -12.00103375	     32.64732376	    108.99882980	    148.77925797	    -34.11776115	     41.47348865	     41.75008213	     75.12371792
      6.70000000	     -3.74969519	     -2.60153255	      2.05391256	     -0.66205317	      1.14624438	     -0.04520122	     -0.02758685	     -2.88219124	    -11.73031109	      5.35200074	     12.14745635	     -8.79906371	      0.00000000	      0.56264283	     -5.78143813	    -12.05157789	      4.14408789	     10.09203363	     -1.03574316	      0.00000000	      7.24141083	      7.79165192	     -7.77462443	     -5.46539232	     -7.65550483	    -12.00467463	     32.58405037	    109.01092217	    148.79829240	    -34.10301711	     41.47146262	     41.73338017	     75.12189452
      6.71666670	     -3.66385905	     -2.62599791	      1.89435538	     -0.65871975	      1.14653611	     -0.04633832	     -0.12833732	     -2.87132374	    -11.60388992	      5.44334385	     12.14783348	     -8.68732484	      0.00000000	      0.40011383	     -5.81417740	    -12.24684169	      4.17133634	     10.12827592	     -1.16352462	      0.00000000	      7.40560320	      7.76675816	     -7.95109716	     -5.72604418	     -7.76699531	    -12.01637543	     32.41877065	    109.05158974	    148.85994666	    -34.06556263	     41.48303521	     41.66318916	     75.11605566
      6.73333330	     -3.56716429	     -2.66321255	      1.60882022	     -0.65746060	      1.14647690	     -0.04643796	     -0.35209588	     -2.83859090	    -11.46132720	      5.34125775	     12.24348354	     -8.43038925	      0.00000000	      0.12745901	     -5.84423680	    -12.52426643	      4.12190636	     10.09379378	     -1.25272272	      0.00000000	      7.73388996	      7.77444377	     -8.04573027	     -5.88377827	     -7.87484618	    -11.94580624	     32.31515921	    109.17791417	    148.73435852	    -33.96531728	     41.67293255	     41.38148257	     75.10740584
      6.75000000	     -3.53984968	     -2.67013177	      1.57781895	     -0.65933798	      1.14611089	     -0.04578657	     -0.42494528	     -2.85047528	    -11.46784802	      5.38387228	     12.24465686	     -8.42307270	      0.00000000	      0.07438023	     -5.85474360	    -12.51504075	      4.18801975	     10.08484523	     -1.24428462	      0.00000000	      7.83463052	      7.77281234	     -8.03026803	     -5.91368185	     -7.89997177	    -11.94433851	     32.30229838	    109.18493072	    148.75858335	    -33.95768095	     41.67948307	     41.37505180	     75.10645215
      6.76666670	     -3.45242837	     -2.69826955	      1.55044260	     -0.66269175	      1.14580719	     -0.04455310	     -0.55945493	     -2.82426571	    -11.73383825	      5.33710694	     12.55526551	     -7.79452586	      0.00000000	      0.04902817	     -5.92014469	    -12.58362544	      4.37032690	     10.19132956	     -1.20758252	      0.00000000	      7.97435880	      7.61112304	     -7.87644957	     -5.67215300	     -8.01734739	    -11.27585955	     31.47275313	    109.89268293	    148.44320664	    -33.32556230	     42.43123763	     40.32632693	     74.97556083
